HIERARCHY
ROOT root
{
	OFFSET 0.000000 0.000000 0.000000
	CHANNELS 6 Xposition Yposition Zposition Zrotation Yrotation Xrotation
	JOINT lhip
	{
		OFFSET 0.058581 -0.082280 -0.017664
		CHANNELS 3 Zrotation Yrotation Xrotation
		JOINT lknee
		{
			OFFSET 0.043451 -0.386469 0.008037
			CHANNELS 3 Zrotation Yrotation Xrotation
			JOINT lankle
			{
				OFFSET -0.014790 -0.426874 -0.037428
				CHANNELS 3 Zrotation Yrotation Xrotation
				JOINT ltoe
				{
					OFFSET 0.041054 -0.060286 0.122042
					CHANNELS 3 Zrotation Yrotation Xrotation
					End Site
					{
						OFFSET 0.000000 0.000000 0.000000
					}
				}
			}
		}
	}
	JOINT rhip
	{
		OFFSET -0.060310 -0.090513 -0.013543
		CHANNELS 3 Zrotation Yrotation Xrotation
		JOINT rknee
		{
			OFFSET -0.043257 -0.383688 -0.004843
			CHANNELS 3 Zrotation Yrotation Xrotation
			JOINT rankle
			{
				OFFSET 0.019056 -0.420046 -0.034562
				CHANNELS 3 Zrotation Yrotation Xrotation
				JOINT rtoe
				{
					OFFSET -0.034840 -0.062106 0.130323
					CHANNELS 3 Zrotation Yrotation Xrotation
					End Site
					{
						OFFSET 0.000000 0.000000 0.000000
					}
				}
			}
		}
	}
	JOINT lowerback
	{
		OFFSET 0.004439 0.124404 -0.038385
		CHANNELS 3 Zrotation Yrotation Xrotation
		JOINT upperback
		{
			OFFSET 0.004488 0.137956 0.026820
			CHANNELS 3 Zrotation Yrotation Xrotation
			JOINT chest
			{
				OFFSET -0.002265 0.056032 0.002855
				CHANNELS 3 Zrotation Yrotation Xrotation
				JOINT lowerneck
				{
					OFFSET -0.013390 0.211636 -0.033468
					CHANNELS 3 Zrotation Yrotation Xrotation
					JOINT upperneck
					{
						OFFSET 0.010113 0.088937 0.050410
						CHANNELS 3 Zrotation Yrotation Xrotation
						End Site
						{
							OFFSET 0.000000 0.000000 0.000000
						}
					}
				}
				JOINT lclavicle
				{
					OFFSET 0.071702 0.114000 -0.018898
					CHANNELS 3 Zrotation Yrotation Xrotation
					JOINT lshoulder
					{
						OFFSET 0.122921 0.045205 -0.019046
						CHANNELS 3 Zrotation Yrotation Xrotation
						JOINT lelbow
						{
							OFFSET 0.255332 -0.015649 -0.022946
							CHANNELS 3 Zrotation Yrotation Xrotation
							JOINT lwrist
							{
								OFFSET 0.265709 0.012698 -0.007375
								CHANNELS 3 Zrotation Yrotation Xrotation
								End Site
								{
									OFFSET 0.000000 0.000000 0.000000
								}
							}
						}
					}
				}
				JOINT rclavicle
				{
					OFFSET -0.082954 0.112472 -0.023707
					CHANNELS 3 Zrotation Yrotation Xrotation
					JOINT rshoulder
					{
						OFFSET -0.113228 0.046853 -0.008472
						CHANNELS 3 Zrotation Yrotation Xrotation
						JOINT relbow
						{
							OFFSET -0.260127 -0.014369 -0.031269
							CHANNELS 3 Zrotation Yrotation Xrotation
							JOINT rwrist
							{
								OFFSET -0.269108 0.006794 -0.006027
								CHANNELS 3 Zrotation Yrotation Xrotation
								End Site
								{
									OFFSET 0.000000 0.000000 0.000000
								}
							}
						}
					}
				}
			}
		}
	}
}
MOTION
Frames: 8
Frame Time: 0.033333
-0.020439 2.180042 0.857739 -17.433888 5.661528 136.666557 12.685435 -6.720068 -51.853908 -11.474509 3.518129 53.323147 9.837520 11.908588 -39.526755 0.000000 -0.000000 0.000000 -4.240414 5.264765 -25.651632 10.910968 12.253660 43.686938 19.206362 3.810098 7.111773 0.000000 -0.000000 0.000000 -4.629983 8.259780 31.831755 2.058756 1.094533 -19.001352 3.658590 3.281572 11.249687 -12.605082 3.003950 -0.210089 -8.402091 -10.962278 22.730368 31.596176 -13.305115 -21.654100 -61.604242 -48.072342 21.987402 15.124420 -37.528040 12.970949 78.540113 -18.078214 -32.237463 -26.076179 16.149185 -22.191746 52.950556 48.069117 16.446834 -19.357748 22.202916 12.058464 -21.510638 23.347814 -12.266932 
-0.020232 2.154116 0.870320 -17.680528 3.870729 133.897670 7.376400 -10.167548 -44.502934 -8.861808 -1.926686 47.453733 11.816725 16.806375 -39.780549 0.000000 -0.000000 0.000000 -5.341473 1.908861 -26.756904 13.483686 10.706325 48.323662 21.401059 8.539348 3.978233 0.000000 -0.000000 0.000000 -3.345115 8.420581 37.675114 0.981898 -0.066958 -19.457804 3.536019 2.778856 10.590918 -12.821353 2.699204 0.246503 -8.193410 -11.372831 21.358593 31.804105 -14.326428 -22.779471 -60.667746 -47.282314 21.881665 16.074473 -37.429243 11.815757 79.061009 -17.372215 -31.575533 -27.010807 17.196403 -23.584897 51.968223 47.040450 15.084765 -19.906720 21.761065 10.474774 -21.481158 24.040807 -9.925563 
-0.022929 2.128941 0.882083 -17.694593 3.450467 131.818136 3.713572 -11.172171 -37.763919 -6.338699 -6.638952 41.367668 12.920953 20.006455 -39.054576 0.000000 -0.000000 0.000000 -4.708179 -0.844237 -29.609993 12.183267 6.369242 53.130928 18.691962 6.055831 -2.447494 0.000000 -0.000000 0.000000 -2.221704 7.642022 41.754894 0.031796 0.110321 -19.658086 3.548073 2.565365 10.189350 -12.979523 2.038751 0.049171 -8.004582 -10.611143 20.877823 32.404419 -14.884747 -23.250144 -59.359484 -46.985299 20.792715 16.109111 -37.164665 11.981722 79.940532 -16.212910 -31.320783 -29.011445 18.403858 -24.535198 50.671973 46.297059 13.532673 -20.039187 21.207331 9.313092 -21.934821 24.318411 -9.377031 
-0.030375 2.112201 0.892453 -18.455534 4.972899 130.942580 3.510914 -9.378876 -33.155248 -5.541447 -9.169091 36.000182 12.603514 20.714573 -37.932955 0.000000 -0.000000 0.000000 -2.789236 0.046999 -35.501044 9.115360 1.593382 58.565794 14.230135 0.393069 -8.820483 0.000000 -0.000000 0.000000 -3.190570 6.917682 43.281209 -0.609826 2.229719 -19.050706 4.153612 3.007873 9.985471 -12.295866 1.720694 -0.316319 -8.080386 -10.359924 19.961691 32.710950 -15.413209 -23.182597 -56.971739 -46.654359 18.945756 16.605784 -37.474715 11.573018 79.242413 -15.339054 -31.111425 -30.483213 19.721487 -25.164151 48.293942 46.263170 11.517685 -19.972043 20.718555 8.763845 -21.539778 24.461034 -9.423615 
-0.034484 2.092482 0.900074 -18.289357 5.365482 128.765276 1.867194 -7.580527 -27.109535 -4.373538 -12.978845 31.061644 12.334594 20.489789 -38.062663 0.000000 -0.000000 0.000000 -1.712395 -0.985690 -39.352421 6.163172 -1.828075 62.701043 11.962405 -3.047533 -14.956131 0.000000 -0.000000 0.000000 -2.005073 5.400060 46.632007 -1.745345 3.271658 -18.797156 3.980646 3.112496 9.493330 -12.345758 1.469140 -0.190337 -7.447217 -10.024855 19.861223 32.757783 -16.160945 -23.456304 -55.747642 -46.033554 17.440068 17.286003 -37.507322 10.956541 78.376066 -15.151563 -30.718561 -31.943130 20.932349 -26.001925 46.397842 45.857939 8.938018 -19.622579 20.390824 8.053891 -21.430825 24.379919 -8.403143 
-0.039352 2.084458 0.900464 -19.148768 5.790046 129.433080 2.308723 -7.273573 -25.503501 -4.140374 -14.261404 26.963619 10.067745 19.906399 -35.949396 0.000000 -0.000000 0.000000 -3.392759 1.219891 -48.506801 4.832419 -6.491263 67.219131 10.401861 -5.919020 -19.314751 0.000000 -0.000000 0.000000 -2.861471 4.606914 46.157582 -2.544929 4.989956 -18.783558 3.949656 3.110055 9.739493 -11.043498 2.695825 -0.770633 -8.512740 -11.275996 21.021555 33.115092 -15.453424 -23.256617 -55.085282 -46.341611 17.153813 17.905948 -37.147652 9.096529 77.792498 -16.405259 -31.278379 -32.115850 20.704113 -25.950075 45.283617 46.944104 8.115327 -19.946487 20.312761 7.203940 -20.577743 24.975137 -7.987523 
-0.044316 2.078556 0.892616 -21.858145 5.358969 130.459950 1.433891 -7.854396 -24.009455 -4.632651 -14.972675 22.516947 9.763018 22.837005 -34.272208 0.000000 -0.000000 0.000000 -7.774813 3.457179 -59.851115 5.083613 -9.193555 71.657119 10.315716 -6.216495 -23.684488 0.000000 -0.000000 0.000000 -4.997575 5.464351 44.725525 -3.860875 5.847310 -18.787161 4.016555 2.870129 10.142552 -8.955117 5.032953 -0.799767 -9.406413 -13.632468 21.009435 33.587345 -14.003590 -23.113454 -54.177266 -46.680369 17.487233 17.687880 -37.796724 8.014491 77.580709 -16.213360 -31.574097 -31.254568 20.111220 -25.651361 44.441863 48.855969 7.756519 -20.382564 19.777654 6.529775 -20.490275 25.667597 -7.409392 
-0.050488 2.064563 0.887253 -21.508562 5.555691 128.910565 0.612555 -6.449668 -19.481883 -3.651936 -17.360107 19.278153 8.499050 23.052499 -34.867253 0.000000 -0.000000 0.000000 -8.687545 3.731711 -65.932867 3.721801 -10.183100 72.914034 9.697342 -4.741315 -26.592881 0.000000 -0.000000 0.000000 -4.285446 4.269103 47.601194 -4.607853 6.738750 -19.963076 4.084262 2.744748 10.279694 -8.189570 5.975971 -1.073638 -10.535512 -14.069695 21.968361 33.254549 -13.109689 -23.359093 -55.039979 -46.531337 17.988116 18.360181 -37.803982 7.778798 77.311329 -16.881053 -32.328622 -31.572889 19.716152 -26.216821 44.624595 49.675767 7.731110 -20.425261 19.827886 7.077725 -22.015135 25.442612 -8.051933 
